<svg viewBox="0 0 24 24" fill="none" xmlns="http://www.w3.org/2000/svg">
	<path d="M7 4H17V10C17 12.76 14.76 15 12 15C9.24 15 7 12.76 7 10V4Z" fill="currentColor" fill-opacity="0.2" stroke="currentColor" stroke-width="1.6" stroke-linejoin="round"/>
	<path d="M7 5.5H4.8C4.3 5.5 4 5.9 4 6.3C4 8.3 5.4 10 7.3 10.3" stroke="currentColor" stroke-width="1.5" stroke-linecap="round" stroke-linejoin="round"/>
	<path d="M17 5.5H19.2C19.7 5.5 20 5.9 20 6.3C20 8.3 18.6 10 16.7 10.3" stroke="currentColor" stroke-width="1.5" stroke-linecap="round" stroke-linejoin="round"/>
	<path d="M12 15V18" stroke="currentColor" stroke-width="1.6" stroke-linecap="round"/>
	<path d="M8.5 20H15.5" stroke="currentColor" stroke-width="1.6" stroke-linecap="round"/>
	<path d="M9.5 20V18.6C9.5 18.3 9.7 18 10 18H14C14.3 18 14.5 18.3 14.5 18.6V20" stroke="currentColor" stroke-width="1.6" stroke-linejoin="round"/>
</svg>
